<svg width="16" height="16" viewBox="0 0 16 16" fill="none" xmlns="http://www.w3.org/2000/svg">
<path d="M14.1717 7.308C14.4877 7.72134 14.4877 8.27934 14.1717 8.692C13.1763 9.99134 10.7883 12.6667 8.00033 12.6667C5.21233 12.6667 2.82433 9.99134 1.829 8.692C1.67526 8.49409 1.5918 8.25061 1.5918 8C1.5918 7.74939 1.67526 7.50591 1.829 7.308C2.82433 6.00867 5.21233 3.33334 8.00033 3.33334C10.7883 3.33334 13.1763 6.00867 14.1717 7.308V7.308Z" stroke="#10161B" stroke-width="1.33333" stroke-linecap="round" stroke-linejoin="round"/>
<path d="M8 10C9.10457 10 10 9.10457 10 8C10 6.89543 9.10457 6 8 6C6.89543 6 6 6.89543 6 8C6 9.10457 6.89543 10 8 10Z" stroke="#10161B" stroke-width="1.33333" stroke-linecap="round" stroke-linejoin="round"/>
</svg>
