<svg width="20" height="20" viewBox="0 0 20 20" fill="none" xmlns="http://www.w3.org/2000/svg">
<path d="M4.99984 0.833333C4.99984 0.61232 5.08764 0.400358 5.24392 0.244078C5.4002 0.0877974 5.61216 0 5.83317 0L12.4998 0C12.7209 0 12.9328 0.0877974 13.0891 0.244078C13.2454 0.400358 13.3332 0.61232 13.3332 0.833333C13.3332 1.05435 13.2454 1.26631 13.0891 1.42259C12.9328 1.57887 12.7209 1.66667 12.4998 1.66667H5.83317C5.61216 1.66667 5.4002 1.57887 5.24392 1.42259C5.08764 1.26631 4.99984 1.05435 4.99984 0.833333ZM8.33317 12.5C8.33317 12.721 8.42097 12.933 8.57725 13.0893C8.73353 13.2455 8.94549 13.3333 9.1665 13.3333C9.38752 13.3333 9.59948 13.2455 9.75576 13.0893C9.91204 12.933 9.99984 12.721 9.99984 12.5V7.5C9.99984 7.27899 9.91204 7.06703 9.75576 6.91074C9.59948 6.75446 9.38752 6.66667 9.1665 6.66667C8.94549 6.66667 8.73353 6.75446 8.57725 6.91074C8.42097 7.06703 8.33317 7.27899 8.33317 7.5V12.5ZM9.1665 3.33333C8.18159 3.33333 7.20632 3.52733 6.29638 3.90424C5.38644 4.28115 4.55964 4.83359 3.8632 5.53003C3.16676 6.22647 2.61432 7.05327 2.23741 7.96321C1.8605 8.87315 1.6665 9.84842 1.6665 10.8333C1.6665 11.8182 1.8605 12.7935 2.23741 13.7035C2.61432 14.6134 3.16676 15.4402 3.8632 16.1366C4.55964 16.8331 5.38644 17.3855 6.29638 17.7624C7.20632 18.1393 8.18159 18.3333 9.1665 18.3333C11.1556 18.3333 13.0633 17.5432 14.4698 16.1366C15.8763 14.7301 16.6665 12.8225 16.6665 10.8333C16.6665 8.84421 15.8763 6.93656 14.4698 5.53003C13.0633 4.12351 11.1556 3.33333 9.1665 3.33333ZM3.33317 10.8333C3.33317 10.0673 3.48405 9.30875 3.77721 8.60101C4.07036 7.89328 4.50004 7.25022 5.04171 6.70854C5.58339 6.16687 6.22645 5.73719 6.93418 5.44404C7.64192 5.15088 8.40046 5 9.1665 5C9.93255 5 10.6911 5.15088 11.3988 5.44404C12.1066 5.73719 12.7496 6.16687 13.2913 6.70854C13.833 7.25022 14.2626 7.89328 14.5558 8.60101C14.849 9.30875 14.9998 10.0673 14.9998 10.8333C14.9998 12.3804 14.3853 13.8642 13.2913 14.9581C12.1973 16.0521 10.7136 16.6667 9.1665 16.6667C7.61941 16.6667 6.13568 16.0521 5.04171 14.9581C3.94775 13.8642 3.33317 12.3804 3.33317 10.8333ZM16.9132 6.42167C16.9902 6.50114 17.0822 6.56449 17.1839 6.60802C17.2857 6.65154 17.395 6.67437 17.5057 6.67517C17.6163 6.67597 17.726 6.65473 17.8284 6.61269C17.9307 6.57064 18.0237 6.50863 18.1018 6.43028C18.1799 6.35193 18.2417 6.2588 18.2834 6.15633C18.3252 6.05386 18.3461 5.94411 18.345 5.83346C18.3439 5.72282 18.3208 5.6135 18.277 5.5119C18.2331 5.41029 18.1695 5.31843 18.0898 5.24167L16.4198 3.57833C16.3429 3.49886 16.2508 3.43551 16.1491 3.39199C16.0473 3.34846 15.938 3.32563 15.8273 3.32483C15.7167 3.32403 15.607 3.34527 15.5046 3.38732C15.4023 3.42936 15.3093 3.49137 15.2312 3.56972C15.1531 3.64807 15.0913 3.7412 15.0496 3.84367C15.0078 3.94614 14.9869 4.05589 14.988 4.16654C14.9891 4.27718 15.0122 4.3865 15.0561 4.4881C15.0999 4.58971 15.1635 4.68157 15.2432 4.75833L16.9132 6.42167Z" fill="white"/>
</svg>
